<svg xmlns="http://www.w3.org/2000/svg" width="128" height="32" fill="none" viewBox="0 0 128 32"><path fill="#FF4C00" fill-rule="evenodd" d="M27.427 16c0 8.836-7.148 16-15.964 16a15.88 15.88 0 0 1-9.506-3.144c.454.255.923.486 1.405.694a14.586 14.586 0 0 0 5.784 1.197c3.706 0 7.273-1.405 9.989-3.927a14.748 14.748 0 0 0 4.667-9.684c.039-.35.06-.7.067-1.05 0-.447-.037-.964-.084-1.436l-.008-.136a1.58 1.58 0 0 0-.008-.156l-.014.014c-.067-.614-.136-1.086-.136-1.086H12.037l-.9 1.689-2.069 3.917h8.753c-.324.97-.81 1.88-1.433 2.691a9.093 9.093 0 0 1-3.204 2.642A9.061 9.061 0 0 1 6 24.603a9.126 9.126 0 0 1-4.35-3.353 9.19 9.19 0 0 1-.954-8.758 9.224 9.224 0 0 1 1.981-2.975A9.098 9.098 0 0 1 5.646 7.53a9.184 9.184 0 0 1 3.5-.698 9.091 9.091 0 0 1 5.39 1.761l1.2-2.252 1.43-2.709A14.647 14.647 0 0 0 9.144 1.25c-2.519 0-4.972.65-7.142 1.856A15.92 15.92 0 0 1 11.463 0c8.816 0 15.964 7.164 15.964 16Z" clip-rule="evenodd"/><path fill="#FF4C00" d="M70.783 19.636a5.8 5.8 0 0 1-2.07 1.58 5.563 5.563 0 0 1-2.27.468 5.756 5.756 0 0 1-2.862-.703c-.031-.018-.059-.039-.09-.06a4.99 4.99 0 0 1-1.872-1.905 5.762 5.762 0 0 1-.703-2.864 5.77 5.77 0 0 1 .703-2.864 5.013 5.013 0 0 1 1.871-1.905c.032-.018.06-.042.091-.06a5.746 5.746 0 0 1 2.861-.703 5.573 5.573 0 0 1 2.274.462l1.626-3.06L70.303 8a10.204 10.204 0 0 0-4.057-.787 10.017 10.017 0 0 0-4.445.987c-.115.056-.238.098-.353.161a8.538 8.538 0 0 0-3.354 3.186 8.804 8.804 0 0 0-1.22 4.605 8.804 8.804 0 0 0 1.22 4.604 8.553 8.553 0 0 0 3.354 3.184c.115.063.238.105.353.16a9.99 9.99 0 0 0 4.418.988c1.395.021 2.78-.248 4.067-.791.017-.007.031-.018.049-.025A8.01 8.01 0 0 0 73.343 22l-2.564-2.37.004.006Zm8.397 4.294a8.606 8.606 0 0 1-3.379-3.198 8.709 8.709 0 0 1-1.22-4.58 8.71 8.71 0 0 1 1.22-4.58 8.605 8.605 0 0 1 3.379-3.197 10.109 10.109 0 0 1 4.847-1.162 9.972 9.972 0 0 1 4.834 1.159 8.7 8.7 0 0 1 3.378 3.197 8.69 8.69 0 0 1 1.235 4.58 8.69 8.69 0 0 1-1.235 4.58 8.7 8.7 0 0 1-3.378 3.197 10.01 10.01 0 0 1-4.834 1.162 10.075 10.075 0 0 1-4.847-1.163v.004Zm7.607-2.953a5.05 5.05 0 0 0 1.938-1.964c.479-.879.72-1.863.703-2.864a5.774 5.774 0 0 0-.703-2.865 5.049 5.049 0 0 0-1.938-1.964 5.484 5.484 0 0 0-2.763-.704 5.458 5.458 0 0 0-2.763.704 5.049 5.049 0 0 0-1.938 1.964 5.764 5.764 0 0 0-.703 2.865 5.773 5.773 0 0 0 .703 2.864 5.05 5.05 0 0 0 1.938 1.964 5.449 5.449 0 0 0 2.763.704 5.458 5.458 0 0 0 2.763-.704Zm20.694 3.817-3.329-4.815h-3.676v4.815h-3.994V7.51h7.47a9.552 9.552 0 0 1 3.984.767 5.918 5.918 0 0 1 2.602 2.175c.626.998.944 2.156.913 3.333a5.861 5.861 0 0 1-.923 3.32 5.852 5.852 0 0 1-2.627 2.135l3.872 5.557h-4.292v-.003Zm-1.011-13.247a4.174 4.174 0 0 0-2.735-.777h-3.256v6.023h3.256a4.13 4.13 0 0 0 2.735-.791c.315-.274.564-.617.728-1.002.161-.385.234-.802.213-1.219a2.744 2.744 0 0 0-.937-2.234h-.004Zm21.503 10.04v3.21h-13.368V7.51h13.046v3.211h-9.076v3.754h8.016v3.113h-8.016v3.998h9.398Zm-78.799-1.954a5.798 5.798 0 0 1-2.07 1.579 5.564 5.564 0 0 1-2.27.469 5.755 5.755 0 0 1-2.861-.704c-.032-.017-.06-.038-.091-.06a4.989 4.989 0 0 1-1.871-1.904 5.762 5.762 0 0 1-.703-2.864 5.77 5.77 0 0 1 .703-2.865 5.014 5.014 0 0 1 1.87-1.905c.032-.017.06-.042.092-.06a5.746 5.746 0 0 1 2.86-.703 5.572 5.572 0 0 1 2.274.462l1.627-3.06-.04-.021a10.14 10.14 0 0 0-4.056-.784 10.017 10.017 0 0 0-4.445.987c-.116.056-.238.098-.353.161a8.537 8.537 0 0 0-3.355 3.186 8.794 8.794 0 0 0-1.22 4.605 8.803 8.803 0 0 0 1.22 4.605 8.553 8.553 0 0 0 3.355 3.182c.115.064.237.105.353.162a9.995 9.995 0 0 0 4.417.987 10.08 10.08 0 0 0 4.068-.791c.017-.007.031-.018.048-.025A8.007 8.007 0 0 0 51.734 22l-2.563-2.371.003.003Z"/><path fill="#FF4C00" d="m53.966 15.655-3.49.014a5.828 5.828 0 0 1-.441 2.57 5.608 5.608 0 0 1-1.343 1.89 5.573 5.573 0 0 1-.92.73c.437 1.11.822 2.142 1.031 3.326.773-.417 1.511-.746 2.155-1.355 1.035-.939 1.756-2.133 2.329-3.407.007-.018.01-.035.018-.05.51-1.169.738-2.44.657-3.715l.004-.003Z"/><path fill="#FF4C00" d="m53.983 15.231-.017.424-1.71 3.078h-9.038l1.83-3.502h8.935Z"/></svg>